HIERARCHY
ROOT hip
{
  OFFSET 0.00112043 5.09927 -9.65472
  CHANNELS 6 Xposition Yposition Zposition Zrotation Xrotation Yrotation
  JOINT abdomen
  {
    OFFSET 0 -1.186 -1.5018
    CHANNELS 3 Zrotation Xrotation Yrotation
    JOINT abdomen2
    {
      OFFSET 0 9.964 0.2134
      CHANNELS 3 Zrotation Xrotation Yrotation
      JOINT chest
      {
        OFFSET 0 13.134 -3.2573
        CHANNELS 3 Zrotation Xrotation Yrotation
        JOINT neck
        {
          OFFSET 0 20.686 -1.6905
          CHANNELS 3 Zrotation Xrotation Yrotation
          JOINT head
          {
            OFFSET 0 7.238 -0.1237
            CHANNELS 3 Zrotation Xrotation Yrotation
            End Site
            {
              OFFSET 0 0 0
            }
          }
        }
        JOINT lCollar
        {
          OFFSET 1.7069 20.075 5.0056
          CHANNELS 3 Zrotation Xrotation Yrotation
          JOINT lShldr
          {
            OFFSET 13.6458 -0.047 -4.849
            CHANNELS 3 Zrotation Xrotation Yrotation
            JOINT lForeArm
            {
              OFFSET 28.3255 -0.9759 2.2888
              CHANNELS 3 Zrotation Xrotation Yrotation
              JOINT lHand
              {
                OFFSET 22.1583 -0.53 10.8316
                CHANNELS 3 Zrotation Xrotation Yrotation
                JOINT lThumb1
                {
                  OFFSET 0.786 0.112 2.5817
                  CHANNELS 3 Zrotation Xrotation Yrotation
                  JOINT lThumb2
                  {
                    OFFSET 0.3601 -0.878 4.2331
                    CHANNELS 3 Zrotation Xrotation Yrotation
                    JOINT lThumb2_End
                    {
                      OFFSET 1.8127 -1.216 2.2227
                      CHANNELS 3 Zrotation Xrotation Yrotation
                      End Site
                      {
                        OFFSET 0.0181 -0.0122 0.0222
                      }
                    }
                  }
                }
                JOINT lCarpal1
                {
                  OFFSET 0.9571 1.114 1.7695
                  CHANNELS 3 Zrotation Xrotation Yrotation
                  JOINT lIndex1
                  {
                    OFFSET 4.1246 0.487 4.1451
                    CHANNELS 3 Zrotation Xrotation Yrotation
                    JOINT lIndex2
                    {
                      OFFSET 3.4052 -1.454 2.7682
                      CHANNELS 3 Zrotation Xrotation Yrotation
                      JOINT lIndex2_End
                      {
                        OFFSET 1.4531 -1.795 1.2713
                        CHANNELS 3 Zrotation Xrotation Yrotation
                        End Site
                        {
                          OFFSET 0.0145 -0.0179 0.0127
                        }
                      }
                    }
                  }
                  JOINT lMid1
                  {
                    OFFSET 5.6954 0.21 2.1184
                    CHANNELS 3 Zrotation Xrotation Yrotation
                    JOINT lMid2
                    {
                      OFFSET 3.9766 -1.54 2.3863
                      CHANNELS 3 Zrotation Xrotation Yrotation
                      JOINT lMid2_End
                      {
                        OFFSET 1.4042 -1.926 1.125
                        CHANNELS 3 Zrotation Xrotation Yrotation
                        End Site
                        {
                          OFFSET 0.014 -0.0193 0.0113
                        }
                      }
                    }
                  }
                }
                JOINT lCarpal2
                {
                  OFFSET 2.0956 0.66 -0.3894
                  CHANNELS 3 Zrotation Xrotation Yrotation
                  JOINT lRing1
                  {
                    OFFSET 5.0395 -0.09 2.4971
                    CHANNELS 3 Zrotation Xrotation Yrotation
                    JOINT lRing2
                    {
                      OFFSET 3.7921 -1.552 1.4806
                      CHANNELS 3 Zrotation Xrotation Yrotation
                      JOINT lRing2_End
                      {
                        OFFSET 1.4655 -1.808 0.9609
                        CHANNELS 3 Zrotation Xrotation Yrotation
                        End Site
                        {
                          OFFSET 0.0147 -0.0181 0.0096
                        }
                      }
                    }
                  }
                  JOINT lPinky1
                  {
                    OFFSET 4.9141 -1.269 0.3591
                    CHANNELS 3 Zrotation Xrotation Yrotation
                    JOINT lPinky2
                    {
                      OFFSET 3.1477 -1.685 0.8462
                      CHANNELS 3 Zrotation Xrotation Yrotation
                      JOINT lPinky2_End
                      {
                        OFFSET 0.8055 -1.585 0.7955
                        CHANNELS 3 Zrotation Xrotation Yrotation
                        End Site
                        {
                          OFFSET 0.0081 -0.0158 0.008
                        }
                      }
                    }
                  }
                }
              }
            }
          }
        }
        JOINT rCollar
        {
          OFFSET -1.7069 20.075 5.0056
          CHANNELS 3 Zrotation Xrotation Yrotation
          JOINT rShldr
          {
            OFFSET -13.6458 -0.047 -4.849
            CHANNELS 3 Zrotation Xrotation Yrotation
            JOINT rForeArm
            {
              OFFSET -28.3255 -0.9759 2.2888
              CHANNELS 3 Zrotation Xrotation Yrotation
              JOINT rHand
              {
                OFFSET -22.1583 -0.53 10.8316
                CHANNELS 3 Zrotation Xrotation Yrotation
                JOINT rThumb1
                {
                  OFFSET -0.786 0.112 2.5817
                  CHANNELS 3 Zrotation Xrotation Yrotation
                  JOINT rThumb2
                  {
                    OFFSET -0.3601 -0.878 4.2331
                    CHANNELS 3 Zrotation Xrotation Yrotation
                    JOINT rThumb2_End
                    {
                      OFFSET -1.8127 -1.216 2.2227
                      CHANNELS 3 Zrotation Xrotation Yrotation
                      End Site
                      {
                        OFFSET -0.0181 -0.0122 0.0222
                      }
                    }
                  }
                }
                JOINT rCarpal1
                {
                  OFFSET -0.9571 1.114 1.7695
                  CHANNELS 3 Zrotation Xrotation Yrotation
                  JOINT rIndex1
                  {
                    OFFSET -4.1246 0.487 4.1451
                    CHANNELS 3 Zrotation Xrotation Yrotation
                    JOINT rIndex2
                    {
                      OFFSET -3.4052 -1.454 2.7682
                      CHANNELS 3 Zrotation Xrotation Yrotation
                      JOINT rIndex2_End
                      {
                        OFFSET -1.4531 -1.795 1.2713
                        CHANNELS 3 Zrotation Xrotation Yrotation
                        End Site
                        {
                          OFFSET -0.0145 -0.018 0.0127
                        }
                      }
                    }
                  }
                  JOINT rMid1
                  {
                    OFFSET -5.6954 0.21 2.1184
                    CHANNELS 3 Zrotation Xrotation Yrotation
                    JOINT rMid2
                    {
                      OFFSET -3.9766 -1.54 2.3863
                      CHANNELS 3 Zrotation Xrotation Yrotation
                      JOINT rMid2_End
                      {
                        OFFSET -1.4042 -1.926 1.125
                        CHANNELS 3 Zrotation Xrotation Yrotation
                        End Site
                        {
                          OFFSET -0.014 -0.0193 0.0113
                        }
                      }
                    }
                  }
                }
                JOINT rCarpal2
                {
                  OFFSET -2.0956 0.66 -0.3894
                  CHANNELS 3 Zrotation Xrotation Yrotation
                  JOINT rRing1
                  {
                    OFFSET -5.0395 -0.09 2.4971
                    CHANNELS 3 Zrotation Xrotation Yrotation
                    JOINT rRing2
                    {
                      OFFSET -3.7921 -1.552 1.4806
                      CHANNELS 3 Zrotation Xrotation Yrotation
                      JOINT rRing2_End
                      {
                        OFFSET -1.4655 -1.808 0.9609
                        CHANNELS 3 Zrotation Xrotation Yrotation
                        End Site
                        {
                          OFFSET -0.0147 -0.0181 0.0096
                        }
                      }
                    }
                  }
                  JOINT rPinky1
                  {
                    OFFSET -4.9141 -1.269 0.3592
                    CHANNELS 3 Zrotation Xrotation Yrotation
                    JOINT rPinky2
                    {
                      OFFSET -3.1477 -1.685 0.8462
                      CHANNELS 3 Zrotation Xrotation Yrotation
                      JOINT rPinky2_End
                      {
                        OFFSET -0.8055 -1.585 0.7955
                        CHANNELS 3 Zrotation Xrotation Yrotation
                        End Site
                        {
                          OFFSET -0.0081 -0.0158 0.008
                        }
                      }
                    }
                  }
                }
              }
            }
          }
        }
      }
    }
  }
  JOINT lThigh
  {
    OFFSET 8.367 -8.2066 0.5982
    CHANNELS 3 Zrotation Xrotation Yrotation
    JOINT lShin
    {
      OFFSET 2.1923 -43.463 -0.4932
      CHANNELS 3 Zrotation Xrotation Yrotation
      JOINT lFoot
      {
        OFFSET 0.7333 -45.8593 -2.6451
        CHANNELS 3 Zrotation Xrotation Yrotation
        End Site
        {
          OFFSET 2.6618 -4.2699 12.3931
        }
      }
    }
  }
  JOINT rThigh
  {
    OFFSET -8.367 -8.2066 0.5982
    CHANNELS 3 Zrotation Xrotation Yrotation
    JOINT rShin
    {
      OFFSET -2.1923 -43.463 -0.4931
      CHANNELS 3 Zrotation Xrotation Yrotation
      JOINT rFoot
      {
        OFFSET -0.7333 -45.8593 -2.6451
        CHANNELS 3 Zrotation Xrotation Yrotation
        End Site
        {
          OFFSET -2.6618 -4.2699 12.3931
        }
      }
    }
  }
}
MOTION
Frames:	4
Frame Time:	0.0333333
-0.116616 33.6197 -76.1411 -0 -63.0022 -0 0 12.9987 -0 0 25.9973 -0 0 25.9973 -0 0 5.31633e-005 -0 0.000829396 0.274519 -0.173106 -0 -8.32304e-006 -0 -74.5738 -15.7973 -9.36691 12.3892 16.1457 -30.4202 12.7 27.3663 -4.93144 1.52178e-007 -3.74803e-007 -1.36051e-007 -2.84625e-006 -1.59223e-006 -2.10482e-007 1.52178e-007 -3.74803e-007 -1.36051e-007 -8.82781e-032 1.59028e-015 3.18055e-015 1.52178e-007 -3.74803e-007 -1.36051e-007 -2.84625e-006 -1.59223e-006 -2.10482e-007 1.52178e-007 -3.74803e-007 -1.36051e-007 1.52178e-007 -3.74803e-007 -1.36051e-007 -2.84625e-006 -1.59223e-006 -2.10482e-007 1.52178e-007 -3.74803e-007 -1.36051e-007 -8.82781e-032 1.59028e-015 3.18055e-015 1.52178e-007 -3.74803e-007 -1.36051e-007 -2.84625e-006 -1.59223e-006 -2.10482e-007 1.52178e-007 -3.74803e-007 -1.36051e-007 1.52178e-007 -3.74803e-007 -1.36051e-007 -2.84625e-006 -1.59223e-006 -2.10482e-007 1.52178e-007 -3.74803e-007 -1.36051e-007 -0 -8.32304e-006 -0 61.354 26.0387 25.0008 -1.09723 -7.74609 59.8907 64.1958 20.7121 -11.2364 -7.16409e-006 7.58881e-006 3.26002e-006 1.26943e-006 4.61707e-007 -9.74058e-007 6.7869e-007 2.92785e-007 3.51291e-006 1.59028e-015 1.59028e-015 -4.37326e-015 -7.16409e-006 7.58881e-006 3.26002e-006 1.26943e-006 4.61707e-007 -9.74058e-007 6.7869e-007 2.92785e-007 3.51291e-006 -7.16409e-006 7.58881e-006 3.26002e-006 1.26943e-006 4.61707e-007 -9.74058e-007 6.7869e-007 2.92785e-007 3.51291e-006 1.59028e-015 1.59028e-015 -4.37326e-015 -7.16409e-006 7.58881e-006 3.26002e-006 1.26943e-006 4.61707e-007 -9.74058e-007 6.7869e-007 2.92785e-007 3.51291e-006 -7.16409e-006 7.58881e-006 3.26002e-006 1.26943e-006 4.61707e-007 -9.74058e-007 6.7869e-007 2.92785e-007 3.51291e-006 5.30027 -32.0416 -17.5668 0.666849 69.7136 10.5855 5.58075 18.873 1.02465 -5.32076 -32.3034 14.5402 -0.710226 69.5231 -10.7725 -6.70805 24.9756 -0.484891 
-0.116994 33.6316 -76.1616 -0 -63.0022 -0 0 12.9987 -0 0 25.9973 -0 0 25.9973 -0 0 5.31633e-005 -0 0.000829396 0.274519 -0.173106 -0 -8.32304e-006 -0 -74.5738 -15.7973 -9.36691 12.3892 16.1457 -30.4202 12.7 27.3663 -4.93144 1.52178e-007 -3.74803e-007 -1.36051e-007 -2.84625e-006 -1.59223e-006 -2.10482e-007 1.52178e-007 -3.74803e-007 -1.36051e-007 -8.82781e-032 1.59028e-015 3.18055e-015 1.52178e-007 -3.74803e-007 -1.36051e-007 -2.84625e-006 -1.59223e-006 -2.10482e-007 1.52178e-007 -3.74803e-007 -1.36051e-007 1.52178e-007 -3.74803e-007 -1.36051e-007 -2.84625e-006 -1.59223e-006 -2.10482e-007 1.52178e-007 -3.74803e-007 -1.36051e-007 -8.82781e-032 1.59028e-015 3.18055e-015 1.52178e-007 -3.74803e-007 -1.36051e-007 -2.84625e-006 -1.59223e-006 -2.10482e-007 1.52178e-007 -3.74803e-007 -1.36051e-007 1.52178e-007 -3.74803e-007 -1.36051e-007 -2.84625e-006 -1.59223e-006 -2.10482e-007 1.52178e-007 -3.74803e-007 -1.36051e-007 -0 -8.32304e-006 -0 61.354 26.0387 25.0007 -1.25437 -7.69318 58.7299 64.1958 20.7121 -11.2364 1.59028e-015 3.18055e-015 2.78299e-015 -2.48282e-031 1.59028e-015 8.94531e-015 -1.59028e-015 1.59028e-015 2.18663e-015 1.59028e-015 0 -5.96354e-016 3.18055e-015 0 6.16232e-015 -1.59028e-015 4.77083e-015 9.34288e-015 -0 0 1.17283e-014 3.18055e-015 0 6.16232e-015 -1.59028e-015 4.77083e-015 9.34288e-015 -0 0 1.17283e-014 1.59028e-015 0 -5.96354e-016 3.18055e-015 0 6.16232e-015 -1.59028e-015 4.77083e-015 9.34288e-015 -0 0 1.17283e-014 3.18055e-015 0 6.16232e-015 -1.59028e-015 4.77083e-015 9.34288e-015 -0 0 1.17283e-014 5.29367 -32.0335 -17.5642 0.66454 69.7263 10.0168 5.54537 18.9212 1.03088 -5.31205 -32.2969 14.5377 -0.707299 69.5374 -10.2031 -6.67202 25.0244 -0.492114 
-0.117375 33.6436 -76.182 -0 -63.0022 -0 0 12.9987 -0 0 25.9973 -0 0 25.9973 -0 0 5.31633e-005 -0 0.000829396 0.274519 -0.173106 -0 -8.32304e-006 -0 -74.5738 -15.7973 -9.36691 12.3892 16.1457 -30.4202 12.7 27.3663 -4.93144 1.52178e-007 -3.74803e-007 -1.36051e-007 1.52178e-007 -3.74803e-007 -1.36051e-007 1.52178e-007 -3.74803e-007 -1.36051e-007 -4.77083e-015 3.18055e-015 -9.54166e-015 1.52178e-007 -3.74803e-007 -1.36051e-007 1.52178e-007 -3.74803e-007 -1.36051e-007 1.52178e-007 -3.74803e-007 -1.36051e-007 1.52178e-007 -3.74803e-007 -1.36051e-007 1.52178e-007 -3.74803e-007 -1.36051e-007 1.52178e-007 -3.74803e-007 -1.36051e-007 -4.77083e-015 3.18055e-015 -9.54166e-015 1.52178e-007 -3.74803e-007 -1.36051e-007 1.52178e-007 -3.74803e-007 -1.36051e-007 1.52178e-007 -3.74803e-007 -1.36051e-007 1.52178e-007 -3.74803e-007 -1.36051e-007 1.52178e-007 -3.74803e-007 -1.36051e-007 1.52178e-007 -3.74803e-007 -1.36051e-007 -0 -8.32304e-006 -0 61.354 26.0387 25.0007 -1.41052 -7.63706 57.5682 64.1958 20.7121 -11.2364 1.98564e-006 7.77369e-007 2.4929e-006 -1.98564e-006 -7.77369e-007 -2.4929e-006 1.98564e-006 7.77369e-007 2.4929e-006 8.27607e-032 -1.59028e-015 2.98177e-015 1.98564e-006 7.77369e-007 2.4929e-006 -1.98564e-006 -7.77369e-007 -2.4929e-006 1.98564e-006 7.77369e-007 2.4929e-006 1.98564e-006 7.77369e-007 2.4929e-006 -1.98564e-006 -7.77369e-007 -2.4929e-006 1.98564e-006 7.77369e-007 2.4929e-006 8.27607e-032 -1.59028e-015 2.98177e-015 1.98564e-006 7.77369e-007 2.4929e-006 -1.98564e-006 -7.77369e-007 -2.4929e-006 1.98564e-006 7.77369e-007 2.4929e-006 1.98564e-006 7.77369e-007 2.4929e-006 -1.98564e-006 -7.77369e-007 -2.4929e-006 1.98564e-006 7.77369e-007 2.4929e-006 5.28715 -32.0262 -17.5616 0.662022 69.7397 9.44783 5.50945 18.9691 1.03717 -5.30417 -32.2879 14.5349 -0.704631 69.5491 -9.63316 -6.63542 25.073 -0.499447 
-0.11775 33.6555 -76.2025 -0 -63.0022 -0 0 12.9987 -0 0 25.9973 -0 0 25.9973 -0 0 5.31633e-005 -0 0.000829396 0.274519 -0.173106 -0 -8.32304e-006 -0 -74.5738 -15.7973 -9.36691 12.3892 16.1457 -30.4202 12.7 27.3663 -4.93144 1.52178e-007 -3.74803e-007 -1.36051e-007 0 1.59028e-015 -0 1.52178e-007 -3.74803e-007 -1.36051e-007 -6.36111e-015 -1.59028e-015 -0 1.52178e-007 -3.74803e-007 -1.36051e-007 6.36111e-015 1.59028e-015 -6.36111e-015 1.52178e-007 -3.74803e-007 -1.36051e-007 1.52178e-007 -3.74803e-007 -1.36051e-007 6.36111e-015 1.59028e-015 -6.36111e-015 1.52178e-007 -3.74803e-007 -1.36051e-007 -6.36111e-015 -1.59028e-015 -0 1.52178e-007 -3.74803e-007 -1.36051e-007 6.36111e-015 1.59028e-015 -6.36111e-015 1.52178e-007 -3.74803e-007 -1.36051e-007 1.52178e-007 -3.74803e-007 -1.36051e-007 6.36111e-015 1.59028e-015 -6.36111e-015 1.52178e-007 -3.74803e-007 -1.36051e-007 -0 -8.32304e-006 -0 61.354 26.0387 25.0007 -1.56561 -7.57776 56.4057 64.1958 20.7121 -11.2364 6.36111e-015 -1.59028e-015 -9.93923e-016 -5.97131e-006 7.98507e-006 2.3511e-006 -1.59028e-015 0 9.93923e-015 3.18055e-015 -1.59028e-015 -1.59028e-015 4.77083e-015 0 2.18663e-015 -5.97131e-006 7.98507e-006 2.3511e-006 -1.59028e-015 -4.77083e-015 1.2921e-014 4.77083e-015 0 2.18663e-015 -5.97131e-006 7.98507e-006 2.3511e-006 -1.59028e-015 -4.77083e-015 1.2921e-014 3.18055e-015 -1.59028e-015 -1.59028e-015 4.77083e-015 0 2.18663e-015 -5.97131e-006 7.98507e-006 2.3511e-006 -1.59028e-015 -4.77083e-015 1.2921e-014 4.77083e-015 0 2.18663e-015 -5.97131e-006 7.98507e-006 2.3511e-006 -1.59028e-015 -4.77083e-015 1.2921e-014 5.28106 -32.0182 -17.559 0.659533 69.7526 8.87863 5.473 19.0165 1.04353 -5.29597 -32.2813 14.5326 -0.701553 69.5633 -9.06322 -6.59826 25.1211 -0.506893 
